<?xml version="1.0" encoding="UTF-8" standalone="no"?>
<!-- Generator: Adobe Illustrator 18.1.1, SVG Export Plug-In . SVG Version: 6.00 Build 0)  -->

<svg
   xmlns:osb="http://www.openswatchbook.org/uri/2009/osb"
   xmlns:dc="http://purl.org/dc/elements/1.1/"
   xmlns:cc="http://creativecommons.org/ns#"
   xmlns:rdf="http://www.w3.org/1999/02/22-rdf-syntax-ns#"
   xmlns:svg="http://www.w3.org/2000/svg"
   xmlns="http://www.w3.org/2000/svg"
   xmlns:xlink="http://www.w3.org/1999/xlink"
   xmlns:sodipodi="http://sodipodi.sourceforge.net/DTD/sodipodi-0.dtd"
   xmlns:inkscape="http://www.inkscape.org/namespaces/inkscape"
   version="1.1"
   id="Capa_1"
   x="0px"
   y="0px"
   viewBox="0 0 612 612"
   style="enable-background:new 0 0 612 612;"
   xml:space="preserve"
   width="512px"
   height="512px"
   inkscape:version="0.91 r13725"
   sodipodi:docname="circle.svg"><metadata
     id="metadata43"><rdf:RDF><cc:Work
         rdf:about=""><dc:format>image/svg+xml</dc:format><dc:type
           rdf:resource="http://purl.org/dc/dcmitype/StillImage" /></cc:Work></rdf:RDF></metadata><defs
     id="defs41"><linearGradient
       inkscape:collect="always"
       id="linearGradient5590"><stop
         id="stop5594"
         offset="0"
         style="stop-color:#7e84f8;stop-opacity:0;" /><stop
         style="stop-color:#6a00fd;stop-opacity:0.86274511"
         offset="0.4027552"
         id="stop4149" /><stop
         id="stop4151"
         offset="1"
         style="stop-color:#0f0039;stop-opacity:0.88659793" /></linearGradient><linearGradient
       id="linearGradient4146"
       osb:paint="gradient"><stop
         style="stop-color:#7e84f8;stop-opacity:1;"
         offset="0"
         id="stop4148" /><stop
         style="stop-color:#7e84f8;stop-opacity:0;"
         offset="1"
         id="stop4150" /></linearGradient><linearGradient
       id="linearGradient5615"
       osb:paint="solid"><stop
         style="stop-color:#00ff00;stop-opacity:1;"
         offset="0"
         id="stop5617" /></linearGradient><radialGradient
       inkscape:collect="always"
       xlink:href="#linearGradient5590"
       id="radialGradient5596"
       cx="306"
       cy="306"
       fx="306"
       fy="306"
       r="306"
       gradientUnits="userSpaceOnUse"
       gradientTransform="matrix(1.0029578,-0.00641541,0.00635594,0.99366207,-2.8499909,3.9025399)"
       spreadMethod="reflect" /></defs><sodipodi:namedview
     pagecolor="#ffffff"
     bordercolor="#666666"
     borderopacity="1"
     objecttolerance="10"
     gridtolerance="10"
     guidetolerance="10"
     inkscape:pageopacity="0"
     inkscape:pageshadow="2"
     inkscape:window-width="1920"
     inkscape:window-height="1056"
     id="namedview39"
     showgrid="false"
     showguides="false"
     inkscape:zoom="0.92187498"
     inkscape:cx="-0.034334781"
     inkscape:cy="353.78769"
     inkscape:window-x="0"
     inkscape:window-y="24"
     inkscape:window-maximized="1"
     inkscape:current-layer="Capa_1" /><g
     style="fill:#7e84f8;fill-opacity:1;stroke:none;stroke-opacity:1"
     id="g5"><g
       id="g4188"
       style="fill:#ffffff;fill-opacity:1;stroke:none;stroke-opacity:1"><path
         sodipodi:nodetypes="scccccscscccsssssssssss"
         d="m 612,306 c 0,28.152 -3.672,55.284 -11.016,81.396 -7.347,26.109 -17.646,50.487 -30.906,73.134 -13.26,22.644 -29.172,43.248 -47.736,61.812 -18.562,18.564 -39.168,34.479 -61.812,47.736 -22.646,13.26 -47.022,23.562 -73.136,30.906 C 361.284,608.328 334.152,612 306,612 277.848,612 250.716,608.328 224.604,600.984 198.492,593.637 174.114,583.338 151.47,570.078 128.826,556.818 108.222,540.906 89.658,522.342 71.094,503.78 55.182,483.174 41.922,460.53 28.662,437.884 18.36,413.508 11.016,387.395 3.672,361.284 0,334.152 0,306 0,277.848 3.672,250.716 11.016,224.604 18.36,198.492 28.662,174.114 41.922,151.47 55.182,128.826 71.094,108.222 89.658,89.658 108.222,71.094 128.826,55.182 151.47,41.922 174.114,28.662 198.492,18.36 224.604,11.016 250.716,3.672 277.848,0 306,0 c 42.024,0 81.702,8.058 119.034,24.174 37.332,16.116 69.768,37.944 97.308,65.484 27.54,27.54 49.368,59.976 65.484,97.308 C 603.942,224.298 612,263.976 612,306 Z"
         id="path4190"
         style="opacity:1;fill:#ffffff;fill-opacity:1;stroke:none;stroke-width:2.98828125;stroke-miterlimit:4;stroke-dasharray:none;stroke-opacity:1;fill-rule:nonzero"
         inkscape:connector-curvature="0" /></g><path
       inkscape:connector-curvature="0"
       style="opacity:1;fill:url(#radialGradient5596);fill-opacity:1;stroke:none;stroke-width:0;stroke-miterlimit:4;stroke-dasharray:none;stroke-opacity:1;fill-rule:nonzero"
       id="path7"
       d="m 612,306 c 0,28.152 -3.672,55.284 -11.016,81.396 -7.347,26.109 -17.646,50.487 -30.906,73.134 -13.26,22.644 -29.172,43.248 -47.736,61.812 -18.562,18.564 -39.168,34.479 -61.812,47.736 -22.646,13.26 -47.022,23.562 -73.136,30.906 C 361.284,608.328 334.152,612 306,612 277.848,612 250.716,608.328 224.604,600.984 198.492,593.637 174.114,583.338 151.47,570.078 128.826,556.818 108.222,540.906 89.658,522.342 71.094,503.78 55.182,483.174 41.922,460.53 28.662,437.884 18.36,413.508 11.016,387.395 3.672,361.284 0,334.152 0,306 0,277.848 3.672,250.716 11.016,224.604 18.36,198.492 28.662,174.114 41.922,151.47 55.182,128.826 71.094,108.222 89.658,89.658 108.222,71.094 128.826,55.182 151.47,41.922 174.114,28.662 198.492,18.36 224.604,11.016 250.716,3.672 277.848,0 306,0 c 42.024,0 81.702,8.058 119.034,24.174 37.332,16.116 69.768,37.944 97.308,65.484 27.54,27.54 49.368,59.976 65.484,97.308 C 603.942,224.298 612,263.976 612,306 Z"
       sodipodi:nodetypes="scccccscscccsssssssssss" /></g></svg>