<?xml version="1.0" encoding="UTF-8" standalone="no"?>
<!-- Generator: Adobe Illustrator 18.0.0, SVG Export Plug-In . SVG Version: 6.00 Build 0)  -->

<svg
   xmlns:dc="http://purl.org/dc/elements/1.1/"
   xmlns:cc="http://creativecommons.org/ns#"
   xmlns:rdf="http://www.w3.org/1999/02/22-rdf-syntax-ns#"
   xmlns:svg="http://www.w3.org/2000/svg"
   xmlns="http://www.w3.org/2000/svg"
   xmlns:sodipodi="http://sodipodi.sourceforge.net/DTD/sodipodi-0.dtd"
   xmlns:inkscape="http://www.inkscape.org/namespaces/inkscape"
   version="1.1"
   id="Capa_1"
   x="0px"
   y="0px"
   viewBox="0 0 306.575 306.575"
   xml:space="preserve"
   width="400"
   height="400"
   inkscape:version="0.91 r13725"
   sodipodi:docname="ribbon.svg"><metadata
     id="metadata41"><rdf:RDF><cc:Work
         rdf:about=""><dc:format>image/svg+xml</dc:format><dc:type
           rdf:resource="http://purl.org/dc/dcmitype/StillImage" /></cc:Work></rdf:RDF></metadata><defs
     id="defs39" /><sodipodi:namedview
     pagecolor="#ffffff"
     bordercolor="#666666"
     borderopacity="1"
     objecttolerance="10"
     gridtolerance="10"
     guidetolerance="10"
     inkscape:pageopacity="0"
     inkscape:pageshadow="2"
     inkscape:window-width="1920"
     inkscape:window-height="1056"
     id="namedview37"
     showgrid="false"
     inkscape:zoom="1.3037281"
     inkscape:cx="190.61192"
     inkscape:cy="121.85862"
     inkscape:window-x="0"
     inkscape:window-y="24"
     inkscape:window-maximized="1"
     inkscape:current-layer="Capa_1"
     showguides="true"
     inkscape:guide-bbox="true"><sodipodi:guide
       position="-45.009669,248.47174"
       orientation="0,1"
       id="guide4175" /><sodipodi:guide
       position="-18.371293,101.04211"
       orientation="0.70710678,0.70710678"
       id="guide4177" /><sodipodi:guide
       position="56.951009,392.6864"
       orientation="1,0"
       id="guide4179" /><sodipodi:guide
       position="245.25677,390.38998"
       orientation="1,0"
       id="guide4181" /><sodipodi:guide
       position="110.68704,147.88891"
       orientation="0,1"
       id="guide4183" /></sodipodi:namedview><g
     id="g3"
     transform="matrix(-0.99984999,0,0,-1.3095073,306.65345,412.59547)"><path
       d="m 305.917,173.128 c -0.656,-1.152 -1.744,-1.995 -3.023,-2.345 l -4.125,-1.128 c -10.572,-2.892 -21.248,-5.359 -31.999,-7.423 l 6.538,-36.223 c 0.46,-2.549 -1.104,-5.027 -3.602,-5.711 l -4.125,-1.128 c -19.38342,-11.37837 -33.86367,-16.27886 -49.693,-22.773 -21.85411,-8.308153 -39.034,-15.02 -62.602,-15.02 -23.568,0 -45.8,5.334 -62.602,15.02 -17.677234,6.93105 -33.722715,18.15767 -49.693,22.773 l -4.125,1.128 c -2.498,0.684 -4.062,3.162 -3.602,5.711 l 6.538,36.223 c -10.75,2.064 -21.427,4.531 -31.999,7.423 l -4.125,1.128 c -1.279,0.35 -2.367,1.193 -3.023,2.345 -0.657,1.152 -0.83,2.518 -0.48,3.797 l 12.199,44.591 c 0.608,2.222 2.623,3.682 4.82,3.682 0.437,0 0.881,-0.058 1.322,-0.179 l 4.124,-1.128 c 31.729,-8.68 64.519,-13.082 97.457,-13.082 l 0.854,0 c 1.342,0 2.628,-0.54 3.568,-1.498 0.94,-0.958 1.456,-2.253 1.431,-3.595 l -0.35,-18.913 c 8.831,1.683 18.144,2.572 27.684,2.572 9.54,0 18.853,-0.889 27.684,-2.572 l -0.35,18.913 c -0.025,1.342 0.49,2.637 1.431,3.595 0.94,0.958 2.227,1.498 3.568,1.498 l 0.854,0 c 32.938,0 65.728,4.401 97.457,13.082 l 4.124,1.128 c 0.441,0.121 0.886,0.179 1.322,0.179 2.197,0 4.212,-1.46 4.82,-3.682 l 12.199,-44.591 c 0.354,-1.279 0.181,-2.645 -0.476,-3.797 z M 153.287,91.376 c 29.19052,0 93.73963,27.82312 109.04663,36.64812 -4.17857,22.15983 -8.21134,32.54361 -12.40063,46.39424 -73.63136,5.62423 -144.84048,2.48081 -193.180921,0.39176 C 52.658949,154.07872 47.393085,141.02208 46.015238,129.3378 93.634244,100.90119 123.68018,91.626556 153.287,91.376 Z M 73.801,191.973 c 13.784,-3.036 27.732,-5.274 41.772,-6.713 l 0.269,14.516 z m 158.972,0 -42.041,7.803 0.269,-14.516 c 14.04,1.439 27.988,3.676 41.772,6.713 z M 20.703,214.056 11.142,179.11 c 10.059,-2.733 20.213,-5.074 30.437,-7.04 l 3.886,21.531 c 0.25,1.38 1.067,2.593 2.254,3.341 0.756,0.477 1.619,0.71 2.494,0.741 0.251,0.09 0.505,0.176 0.775,0.226 l 27.804,5.161 c -19.607,2.145 -39.033,5.811 -58.089,10.986 z m 265.168,0 c -19.056,-5.174 -38.482,-8.84 -58.09,-10.986 l 27.804,-5.161 c 0.243,-0.045 0.469,-0.126 0.697,-0.203 0.902,-0.017 1.793,-0.273 2.573,-0.764 1.187,-0.749 2.004,-1.961 2.254,-3.341 l 3.886,-21.531 c 10.224,1.966 20.379,4.307 30.437,7.04 z"
       id="path5"
       inkscape:connector-curvature="0"
       style="fill:#006df0"
       sodipodi:nodetypes="ccccccccsccccccccccsccsssccscccssccsccccccccccccccccccccccccccccccccccc" /></g><g
     id="g7" /><g
     id="g9" /><g
     id="g11" /><g
     id="g13" /><g
     id="g15" /><g
     id="g17" /><g
     id="g19" /><g
     id="g21" /><g
     id="g23" /><g
     id="g25" /><g
     id="g27" /><g
     id="g29" /><g
     id="g31" /><g
     id="g33" /><g
     id="g35" /></svg>