<?xml version="1.0" encoding="UTF-8" standalone="no"?>
<!-- Generator: Adobe Illustrator 18.1.1, SVG Export Plug-In . SVG Version: 6.00 Build 0)  -->

<svg
   xmlns:osb="http://www.openswatchbook.org/uri/2009/osb"
   xmlns:dc="http://purl.org/dc/elements/1.1/"
   xmlns:cc="http://creativecommons.org/ns#"
   xmlns:rdf="http://www.w3.org/1999/02/22-rdf-syntax-ns#"
   xmlns:svg="http://www.w3.org/2000/svg"
   xmlns="http://www.w3.org/2000/svg"
   xmlns:xlink="http://www.w3.org/1999/xlink"
   xmlns:sodipodi="http://sodipodi.sourceforge.net/DTD/sodipodi-0.dtd"
   xmlns:inkscape="http://www.inkscape.org/namespaces/inkscape"
   version="1.1"
   id="Capa_1"
   x="0px"
   y="0px"
   viewBox="0 0 612 612"
   style="enable-background:new 0 0 612 612;"
   xml:space="preserve"
   width="512px"
   height="512px"
   inkscape:version="0.91 r13725"
   sodipodi:docname="settings-button.svg"><metadata
     id="metadata43"><rdf:RDF><cc:Work
         rdf:about=""><dc:format>image/svg+xml</dc:format><dc:type
           rdf:resource="http://purl.org/dc/dcmitype/StillImage" /></cc:Work></rdf:RDF></metadata><defs
     id="defs41"><linearGradient
       id="linearGradient5639"
       inkscape:collect="always"><stop
         style="stop-color:#0b70bd;stop-opacity:0.74901962"
         offset="0"
         id="stop5643" /><stop
         id="stop5647"
         offset="0.65512538"
         style="stop-color:#6452ea;stop-opacity:0.92783505" /><stop
         style="stop-color:#2b558c;stop-opacity:0.50196081"
         offset="0.88168758"
         id="stop5651" /><stop
         id="stop5655"
         offset="1"
         style="stop-color:#2d352a;stop-opacity:0.33333334" /><stop
         id="stop5645"
         offset="1"
         style="stop-color:#001fff;stop-opacity:0.10980392" /></linearGradient><linearGradient
       id="linearGradient5615"
       osb:paint="solid"><stop
         style="stop-color:#00ff00;stop-opacity:1;"
         offset="0"
         id="stop5617" /></linearGradient><radialGradient
       inkscape:collect="always"
       xlink:href="#linearGradient5639"
       id="radialGradient5629"
       cx="324.72662"
       cy="307.21729"
       fx="324.72662"
       fy="307.21729"
       r="306"
       gradientUnits="userSpaceOnUse"
       gradientTransform="matrix(1.0042373,0.00423729,-0.00421937,0.9999911,-0.00548242,-1.2938863)" /></defs><sodipodi:namedview
     pagecolor="#ffffff"
     bordercolor="#666666"
     borderopacity="1"
     objecttolerance="10"
     gridtolerance="10"
     guidetolerance="10"
     inkscape:pageopacity="0"
     inkscape:pageshadow="2"
     inkscape:window-width="1920"
     inkscape:window-height="1056"
     id="namedview39"
     showgrid="false"
     showguides="false"
     inkscape:zoom="1.84375"
     inkscape:cx="139.30061"
     inkscape:cy="233.74022"
     inkscape:window-x="0"
     inkscape:window-y="24"
     inkscape:window-maximized="1"
     inkscape:current-layer="Capa_1" /><g
     style="fill:url(#radialGradient5629);fill-opacity:1;stroke:none;stroke-opacity:1"
     id="g5"><path
       inkscape:connector-curvature="0"
       style="fill:#0000f7;fill-opacity:1;stroke:none;stroke-width:2.98828125;stroke-miterlimit:4;stroke-dasharray:none;stroke-opacity:1;opacity:1"
       id="path7"
       d="m 344.25,267.75 c 10.404,10.404 15.606,23.154 15.606,38.25 0,15.096 -5.202,27.846 -15.606,38.25 -10.404,10.404 -23.154,15.606 -38.25,15.606 -15.096,0 -27.846,-5.202 -38.25,-15.606 -10.404,-10.404 -15.606,-23.154 -15.606,-38.25 0,-15.096 5.202,-27.846 15.606,-38.25 10.404,-10.404 23.154,-15.606 38.25,-15.606 15.096,0 27.846,5.202 38.25,15.606 z M 612,306 c 0,28.152 -3.672,55.284 -11.016,81.396 -7.347,26.109 -17.646,50.487 -30.906,73.134 -13.26,22.644 -29.172,43.248 -47.736,61.812 -18.562,18.564 -39.168,34.479 -61.812,47.736 -22.646,13.26 -47.022,23.562 -73.136,30.906 C 361.284,608.328 334.152,612 306,612 277.848,612 250.716,608.328 224.604,600.984 198.492,593.637 174.114,583.338 151.47,570.078 128.826,556.818 108.222,540.906 89.658,522.342 71.094,503.78 55.182,483.174 41.922,460.53 28.662,437.884 18.36,413.508 11.016,387.395 3.672,361.284 0,334.152 0,306 0,277.848 3.672,250.716 11.016,224.604 18.36,198.492 28.662,174.114 41.922,151.47 55.182,128.826 71.094,108.222 89.658,89.658 108.222,71.094 128.826,55.182 151.47,41.922 174.114,28.662 198.492,18.36 224.604,11.016 250.716,3.672 277.848,0 306,0 c 42.024,0 81.702,8.058 119.034,24.174 37.332,16.116 69.768,37.944 97.308,65.484 27.54,27.54 49.368,59.976 65.484,97.308 C 603.942,224.298 612,263.976 612,306 Z M 488.988,285.804 c 0,-2.448 -0.918,-4.59 -2.754,-6.426 -1.836,-1.836 -3.979,-2.754 -6.429,-2.754 l -46.512,-4.896 c -1.224,-5.712 -2.958,-11.118 -5.202,-16.218 -2.244,-5.1 -4.794,-10.302 -7.647,-15.606 l 29.376,-36.108 c 3.672,-4.488 3.468,-8.772 -0.612,-12.852 l -28.152,-28.152 c -2.04,-2.04 -4.281,-3.06 -6.729,-3.06 -2.448,0 -4.488,0.816 -6.12,2.448 l -36.108,29.376 c -5.304,-2.856 -10.506,-5.406 -15.604,-7.65 -5.103,-2.244 -10.506,-3.979 -16.218,-5.202 l -4.896,-46.512 c 0,-2.448 -0.918,-4.59 -2.754,-6.426 -1.836,-1.836 -3.979,-2.754 -6.426,-2.754 l -40.392,0 c -2.448,0 -4.59,0.918 -6.426,2.754 -1.836,1.836 -2.754,3.978 -2.754,6.426 l -4.896,46.512 c -5.712,1.224 -11.118,2.958 -16.218,5.202 -5.1,2.244 -10.302,4.794 -15.606,7.65 L 203.8,162.18 c -1.632,-1.632 -3.672,-2.448 -6.12,-2.448 -2.448,0 -4.692,1.02 -6.732,3.06 l -28.152,28.152 c -4.08,4.08 -4.284,8.364 -0.612,12.852 l 29.376,36.108 c -2.856,5.304 -5.406,10.506 -7.65,15.606 -2.244,5.1 -3.978,10.506 -5.202,16.218 l -46.512,4.896 c -2.448,0 -4.59,0.918 -6.426,2.754 -1.836,1.836 -2.754,3.978 -2.754,6.426 l 0,40.392 c 0,2.445 0.918,4.59 2.754,6.426 1.836,1.836 3.978,2.754 6.426,2.754 l 46.512,4.896 c 1.224,5.713 2.958,11.116 5.202,16.219 2.244,5.1 4.794,10.302 7.65,15.604 l -29.376,36.108 c -3.672,4.488 -3.468,8.771 0.612,12.852 l 28.152,28.152 c 2.04,2.04 4.284,3.061 6.732,3.061 2.448,0 4.488,-0.814 6.12,-2.446 l 36.108,-29.376 c 5.304,2.854 10.506,5.403 15.606,7.647 5.1,2.244 10.506,3.979 16.218,5.202 l 4.896,46.512 c 0,2.448 0.918,4.592 2.754,6.429 1.836,1.836 3.978,2.754 6.426,2.754 l 40.392,0 c 2.447,0 4.59,-0.918 6.426,-2.754 1.836,-1.837 2.754,-3.979 2.754,-6.429 l 4.896,-46.512 c 5.712,-1.224 11.115,-2.958 16.218,-5.202 5.1,-2.244 10.302,-4.794 15.604,-7.648 l 36.108,29.377 c 1.632,1.632 3.672,2.446 6.12,2.446 2.448,0 4.689,-1.021 6.729,-3.061 l 28.152,-28.152 c 4.08,-4.08 4.284,-8.362 0.612,-12.852 l -29.376,-36.108 c 2.854,-5.304 5.403,-10.506 7.647,-15.604 2.244,-5.103 3.979,-10.507 5.202,-16.219 l 46.512,-4.896 c 2.448,0 4.593,-0.918 6.429,-2.754 1.836,-1.836 2.754,-3.979 2.754,-6.426 l 0,-40.392 10e-4,0 z" /></g><g
     id="g9" /><g
     id="g11" /><g
     id="g13" /><g
     id="g15" /><g
     id="g17" /><g
     id="g19" /><g
     id="g21" /><g
     id="g23" /><g
     id="g25" /><g
     id="g27" /><g
     id="g29" /><g
     id="g31" /><g
     id="g33" /><g
     id="g35" /><g
     id="g37" /></svg>